# xmcd
#
# Track frame offsets: 
#        150
#        28661
#        43824
#        58229
#        77499
#        110686
#        130171
#        145696
#        167522
#        189965
#        212099
#        231500
#        269447
#        285126
#        308145
#        337170
#
# Disc length: 4733 seconds
#
# Revision: 0
# Processed by: cddbd v1.5.2PL0 Copyright (c) Steve Scherf et al.
# Submitted via: ExactAudioCopy v0.99pb3
#
DISCID=e8127b10
DTITLE=Skip Towne And The Greyhounds - Detours
DYEAR=2007
DGENRE=Blues
TTITLE0=Soul Intro - The Chicken
TTITLE1=Ain't Nobody Here But Us Chickens
TTITLE2=Please Stop Messin' Round
TTITLE3=Messin' With The Kid
TTITLE4=Cantaloupe Island
TTITLE5=My Baby's Gone
TTITLE6=Natural Ball
TTITLE7=Up The Line
TTITLE8=Chitlins Con Carne
TTITLE9=Whinin' Boy Moan
TTITLE10=Just A Little Bit (Teeny Weeny Bit)
TTITLE11=All Blues
TTITLE12=I Got Loaded
TTITLE13=Buzz Me
TTITLE14=Killer Joe
TTITLE15=The Curly Shuffle
EXTD=
EXTT0=
EXTT1=
EXTT2=
EXTT3=
EXTT4=
EXTT5=
EXTT6=
EXTT7=
EXTT8=
EXTT9=
EXTT10=
EXTT11=
EXTT12=
EXTT13=
EXTT14=
EXTT15=
PLAYORDER=
